<svg data-v-0dd9719b="" version="1.0" xmlns="http://www.w3.org/2000/svg" xmlns:xlink="http://www.w3.org/1999/xlink" width="100%" height="100%" viewBox="0 0 340.000000 250.000000" preserveAspectRatio="xMidYMid meet" color-interpolation-filters="sRGB" style="margin: auto;"> <rect data-v-0dd9719b="" x="0" y="0" width="100%" height="100%" fill="#fff" fill-opacity="1" class="background"></rect> <rect data-v-0dd9719b="" x="0" y="0" width="100%" height="100%" fill="url(#watermark)" fill-opacity="1" class="watermarklayer"></rect> <g data-v-0dd9719b="" fill="#44c2f4" class="icon-text-wrapper icon-svg-group iconsvg" transform="translate(48.01000213623047,95)"><g class="iconsvg-imagesvg" transform="translate(0,0)"><g><rect fill="#44c2f4" fill-opacity="0" stroke-width="2" x="0" y="0" width="60" height="60" class="image-rect"></rect> <svg x="0" y="0" width="60" height="60" filtersec="colorsb2447304543" class="image-svg-svg primary" style="overflow: visible;"><svg version="1.1" id="图层_1" xmlns="http://www.w3.org/2000/svg" xmlns:xlink="http://www.w3.org/1999/xlink" x="0px" y="0px" viewBox="0.49000000953674316 1 98 98" enable-background="new 0 0 100 100" xml:space="preserve">
<g>
	<polygon fill-rule="evenodd" clip-rule="evenodd" fill="#004883" points="54.19,50 98.49,94.3 98.49,70.89 77.6,50 98.49,29.11 
		98.49,5.7 	"></polygon>
	<polygon fill-rule="evenodd" clip-rule="evenodd" fill="#004883" points="0.49,94.3 44.8,50 0.49,5.7 0.49,29.11 21.38,50 
		0.49,70.89 	"></polygon>
	<polygon fill-rule="evenodd" clip-rule="evenodd" fill="#44C2F4" points="49.49,54.7 5.19,99 28.6,99 49.49,78.11 70.38,99 
		93.8,99 	"></polygon>
	<polygon fill-rule="evenodd" clip-rule="evenodd" fill="#44C2F4" points="5.19,1 49.49,45.3 93.8,1 70.38,1 49.49,21.89 28.6,1 	
		"></polygon>
</g>
</svg></svg> <!----></g></g> <g transform="translate(67,1.2837486267089844)"><g data-gra="path-name" fill-rule="" class="tp-name iconsvg-namesvg" transform="translate(0,0)"><g transform="scale(1)"><g><path d="M11.56-13.68L11.56-13.68 16.25-9.81Q10.57-1.93 1.53 1.89L1.53 1.89 1.13 1.44Q3.96-1.21 6.79-5.26L6.79-5.26Q9.67-9.36 11.56-13.68ZM29.74-12.82L29.74-12.82 30.15-13.14Q38.84-10.71 41.71-5.94L41.71-5.94Q43.47-3.1 42.39-0.94L42.39-0.94Q41.49 0.77 39.46 0.36L39.46 0.36Q38.74 0.18 37.98-0.32L37.98-0.32Q36.09-5.89 29.74-12.82ZM18.18-30.11L43.24-30.11 43.24-28.84 17.64-28.84Q13.5-20.11 12.29-17.59L12.29-17.59 20.88-17.59 20.88-25.61 26.37-24.97 26.37-17.59 40.95-17.59 40.95-16.29 26.37-16.29 26.37-2.25Q26.37 0.77 25.02 2.16L25.02 2.16Q23.71 3.55 19.39 3.92L19.39 3.92Q19.17 1.21 18.31 0.32L18.31 0.32Q17.28-0.94 14.49-1.44L14.49-1.44 14.49-2.02Q18.99-1.75 19.93-1.75 20.88-1.75 20.88-2.48L20.88-2.48 20.88-16.29 6.93-16.29 6.93-18.95Q8.96-22.59 11.79-28.84L11.79-28.84 2.16-28.84 1.8-30.11 12.33-30.11Q14.76-35.59 15.66-38.43L15.66-38.43 20.61-36.31Q19.8-33.66 18.18-30.11L18.18-30.11ZM54.95-27.13L54.95-27.13 54.36-31.95 47.3-31.95 46.94-33.25 54.23-33.25 53.64-38.07 58.95-37.57Q58.95-37.57 59.35-33.25L59.35-33.25 68.09-33.25 68.09-31.95 59.53-31.95 59.98-28.48Q58.81-27.04 54.95-27.13ZM85.05-7.47L85.55-7.47 85.68-2.11Q86.67-1.71 86.98-1.21L86.98-1.21Q87.34-0.77 87.34-0.04L87.34-0.04Q87.34 1.48 85.5 2.11L85.5 2.11Q83.66 2.79 78.44 2.79L78.44 2.79 74.16 2.79Q70.92 2.79 69.88 1.93L69.88 1.93Q68.89 1.13 68.89-1.4L68.89-1.4 68.89-11.07 64.8-11.07Q64.08-4.81 60.12-1.35 56.16 2.11 47.88 3.65L47.88 3.65 47.74 3.06Q53.64 0.81 56.16-2.48L56.16-2.48Q58.73-5.8 59.17-11.07L59.17-11.07 49.63-11.07 49.27-12.33 86.22-12.33 86.22-11.07 73.94-11.07 73.94-2.43Q73.94-1.93 74.16-1.8L74.16-1.8Q74.43-1.67 75.38-1.67L75.38-1.67 79.02-1.67Q81.5-1.67 82.08-1.71L82.08-1.71Q82.71-1.71 83.12-2.29L83.12-2.29Q83.61-3.01 85.05-7.47L85.05-7.47ZM55.22-18.63L79.6-18.63 79.6-17.32 55.58-17.32 55.22-18.63ZM54.27-24.3L86.17-24.3 86.17-22.05Q83.52-19.89 80.28-18.45L80.28-18.45 79.83-18.77Q80.5-20.97 80.91-23.04L80.91-23.04 54.45-23.04Q54.72-18.77 52.2-17.28L52.2-17.28Q51.21-16.61 49.91-16.92L49.91-16.92Q48.6-17.28 48.2-18.45L48.2-18.45Q47.52-20.7 50.04-21.96L50.04-21.96Q51.16-22.68 52.02-24.21 52.88-25.74 52.7-27.31L52.7-27.31 53.33-27.36Q54-25.74 54.27-24.3L54.27-24.3ZM78.88-33.25L88.25-33.25 88.25-31.95 78.7-31.95 78.07-28.26Q76.45-26.95 72.9-27.68L72.9-27.68 73.58-31.95 69.12-31.95 68.76-33.25 73.75-33.25 74.52-38.07 79.29-36.85 78.88-33.25ZM68-24.3L68-24.3Q66.69-24.3 65.61-25.2L65.61-25.2Q65.52-27.86 63.63-29.92L63.63-29.92 63.99-30.2Q69.48-29.83 70.47-27.49L70.47-27.49Q71.1-26.01 69.75-24.93L69.75-24.93Q68.98-24.34 68-24.3ZM119.03-30.78L114.21-30.78 113.85-32.09 119.2-32.09 120.11-38.02 124.92-36.67Q124.92-36.67 124.38-32.09L124.38-32.09 133.43-32.09 133.43-30.78 124.16-30.78 123.3-25.06Q121.63-23.71 118.08-24.43L118.08-24.43 119.03-30.78ZM99.72-30.78L92.3-30.78 91.94-32.09 99.58-32.09 98.91-38.02 104.22-37.57 104.72-32.09 113.36-32.09 113.36-30.78 104.89-30.78 105.57-25.15Q104.53-23.71 100.53-23.8L100.53-23.8 99.72-30.78ZM119.52-23.98L119.52-23.98 124.69-21.33Q121.63-12.91 116.19-7.42L116.19-7.42Q123.44-3.28 133.92-1.26L133.92-1.26 133.78-0.72Q129.87-0.09 128.61 3.96L128.61 3.96Q119.03 0.99 112.63-4.37L112.63-4.37Q104.27 1.89 91.75 3.96L91.75 3.96 91.48 3.38Q102.69-0.09 109.8-7.11L109.8-7.11Q103.81-13.5 101.16-23.04L101.16-23.04 101.79-23.49Q104.85-15.43 112.32-9.9L112.32-9.9Q117.18-15.79 119.52-23.98ZM153.18-37.89L153.18-37.89 153.5-38.16Q159.75-38.07 161.41-35.23L161.41-35.23Q162.41-33.48 161.15-31.86 159.88-30.24 157.81-30.78L157.81-30.78Q156.96-30.96 156.19-31.54L156.19-31.54Q156.15-33.25 155.29-35.01L155.29-35.01Q154.49-36.77 153.18-37.89ZM143.46-30.6L176.94-30.6 176.94-28.26Q174.28-25.43 170.91-23.49L170.91-23.49Q171-26.14 171.31-29.34L171.31-29.34 143.69-29.34Q143.96-26.91 143.28-25.15 142.6-23.4 141.3-22.59L141.3-22.59Q140.18-21.78 138.6-22.18L138.6-22.18Q137.07-22.63 136.53-24.03L136.53-24.03Q135.9-26.68 138.65-28.08L138.65-28.08Q140-28.75 141.03-30.24L141.03-30.24Q142.11-31.72 142.06-33.3L142.06-33.3 142.65-33.3Q143.19-31.86 143.46-30.6L143.46-30.6ZM170.5-23.85L170.5-23.85 171.59-22.9Q171.41-22.18 170.32-22.18L170.32-22.18 160.16-22.18 160.16-14.67 178.11-14.67 178.11-13.41 160.16-13.41 160.16-2.65Q160.16 0.45 158.67 2.07 157.19 3.69 152.73 4.05L152.73 4.05Q152.59 1.21 151.47 0.14L151.47 0.14Q150.12-1.21 146.79-1.75L146.79-1.75 146.79-2.34Q152.5-1.98 153.68-1.98L153.68-1.98Q154.71-1.98 154.71-2.83L154.71-2.83 154.71-13.41 137.38-13.41 137.03-14.67 154.71-14.67 154.71-22.18 143.78-22.18 143.41-23.45 163.66-23.45 166.45-27Q168.62-25.38 170.5-23.85Z" transform="translate(-1.1299999952316284, 38.43000030517578)"></path></g> <!----> <!----> <!----> <!----> <!----> <!----> <!----></g></g> <g data-gra="path-slogan" fill-rule="" class="tp-slogan iconsvg-slogansvg" fill="#44c2f4" transform="translate(5.000007629394531,48.47999954223633)"><rect x="0" height="1" y="3.9750003814697266" width="30.56999969482422"></rect> <rect height="1" y="3.9750003814697266" width="30.56999969482422" x="136.40999603271484"></rect> <g transform="translate(33.56999969482422,0)"><g transform="scale(1)"><path d="M4.41 0L0.94 0L0.94-8.58L4.45-8.58Q7.92-8.39 8.06-4.41L8.06-4.41Q7.88-0.09 4.41 0L4.41 0ZM4.27-7.64L2.11-7.64L2.11-0.98L4.36-0.98Q6.80-1.13 6.89-4.31L6.89-4.31Q6.84-7.55 4.27-7.64L4.27-7.64ZM16.31-4.27L16.31-4.27Q16.13-7.64 13.31-7.83L13.31-7.83Q10.45-7.69 10.31-4.27L10.31-4.27Q10.45-0.94 13.31-0.80L13.31-0.80Q16.13-0.98 16.31-4.27ZM17.48-4.27L17.48-4.27Q17.20 0 13.31 0.14L13.31 0.14Q9.38 0 9.09-4.27L9.09-4.27Q9.33-8.72 13.31-8.81L13.31-8.81Q17.20-8.67 17.48-4.27ZM20.25-8.58L24.56-1.64L24.56-8.58L25.69-8.58L25.69 0L24.38 0L20.02-6.94L19.97-6.94L19.97 0L18.84 0L18.84-8.58L20.25-8.58ZM33.89-3.61L31.27-3.61L31.27-4.59L35.02-4.59L35.02 0L34.27 0L33.98-1.08Q33 0.09 31.17 0.14L31.17 0.14Q29.44 0.14 28.50-0.75L28.50-0.75Q27.09-2.06 27.14-4.36L27.14-4.36Q27.47-8.63 31.22-8.81L31.22-8.81Q34.41-8.63 34.88-6L34.88-6L33.75-6Q33.28-7.78 31.17-7.83L31.17-7.83Q28.50-7.64 28.36-4.31L28.36-4.31Q28.36-0.75 31.22-0.75L31.22-0.75Q32.25-0.75 33-1.31L33-1.31Q33.94-2.06 33.89-3.61L33.89-3.61ZM43.22-3.61L40.59-3.61L40.59-4.59L44.34-4.59L44.34 0L43.59 0L43.31-1.08Q42.33 0.09 40.50 0.14L40.50 0.14Q38.77 0.14 37.83-0.75L37.83-0.75Q36.42-2.06 36.47-4.36L36.47-4.36Q36.80-8.63 40.55-8.81L40.55-8.81Q43.73-8.63 44.20-6L44.20-6L43.08-6Q42.61-7.78 40.50-7.83L40.50-7.83Q37.83-7.64 37.69-4.31L37.69-4.31Q37.69-0.75 40.55-0.75L40.55-0.75Q41.58-0.75 42.33-1.31L42.33-1.31Q43.27-2.06 43.22-3.61L43.22-3.61ZM51.80-3.19L51.80-8.58L52.97-8.58L52.97-3.05Q52.83 0.05 49.45 0.14L49.45 0.14Q46.31 0.05 46.17-2.86L46.17-2.86L46.17-8.58L47.34-8.58L47.34-3.19Q47.39-0.84 49.50-0.80L49.50-0.80Q51.80-0.84 51.80-3.19L51.80-3.19ZM60.42 0L59.58-2.48L56.11-2.48L55.22 0L54.05 0L57.28-8.58L58.59-8.58L61.69 0L60.42 0ZM57.84-7.31L56.48-3.52L59.16-3.52L57.89-7.31L57.84-7.31ZM64.13-8.58L68.44-1.64L68.44-8.58L69.56-8.58L69.56 0L68.25 0L63.89-6.94L63.84-6.94L63.84 0L62.72 0L62.72-8.58L64.13-8.58ZM80.34 0L79.50-2.48L76.03-2.48L75.14 0L73.97 0L77.20-8.58L78.52-8.58L81.61 0L80.34 0ZM77.77-7.31L76.41-3.52L79.08-3.52L77.81-7.31L77.77-7.31ZM82.83-8.58L84-8.58L84 0L82.83 0L82.83-8.58ZM92.91-8.58L89.67-3.47L89.67 0L88.50 0L88.50-3.47L85.27-8.58L86.63-8.58L89.06-4.45L91.55-8.58L92.91-8.58ZM99.61-3.19L99.61-8.58L100.78-8.58L100.78-3.05Q100.64 0.05 97.27 0.14L97.27 0.14Q94.13 0.05 93.98-2.86L93.98-2.86L93.98-8.58L95.16-8.58L95.16-3.19Q95.20-0.84 97.31-0.80L97.31-0.80Q99.61-0.84 99.61-3.19L99.61-3.19Z" transform="translate(-0.9375, 8.8125)"></path></g></g></g></g></g><defs v-gra="od"></defs></svg>